<svg width="14" height="15" viewBox="0 0 14 15" fill="none" xmlns="http://www.w3.org/2000/svg">
<path d="M12.333 5.56009C12.0869 5.56009 11.8561 5.62063 11.6579 5.72613C11.5833 5.12542 11.0176 4.65723 10.333 4.65723C10.0075 4.65723 9.70832 4.76363 9.47591 4.94084C9.24251 4.59081 8.8177 4.35627 8.33301 4.35627C8.09051 4.35627 7.86263 4.41504 7.66635 4.51791V1.34676C7.66632 0.682825 7.06835 0.142944 6.33301 0.142944C5.59766 0.142944 4.99966 0.682825 4.99966 1.34676V9.40135C4.99966 9.553 4.88898 9.63087 4.84144 9.65734C4.79391 9.6838 4.66598 9.73817 4.51723 9.67057L2.3766 8.70423C2.1816 8.61606 1.9632 8.56962 1.7451 8.56962C0.966445 8.56962 0.333008 9.14155 0.333008 9.84457V10.0744C0.333008 10.1578 0.371414 10.2375 0.438789 10.2945L4.28613 13.5365C5.09145 14.2148 6.1416 14.5887 7.24282 14.5887H9.33298C11.7223 14.5887 13.6663 12.8335 13.6663 10.6763V6.76391C13.6663 6.09997 13.0684 5.56009 12.333 5.56009ZM12.9997 10.6763C12.9997 12.5017 11.3548 13.9867 9.33301 13.9867H7.24285C6.3112 13.9867 5.42254 13.6705 4.74123 13.0962L0.999664 9.9436V9.84457C0.999664 9.47335 1.33398 9.17152 1.7451 9.17152C1.86001 9.17152 1.97557 9.1962 2.07845 9.24264L4.21907 10.209C4.53126 10.3503 4.89516 10.3348 5.19204 10.1696C5.48891 10.0038 5.66632 9.7167 5.66632 9.40135V1.34676C5.66632 1.01496 5.96548 0.744868 6.33298 0.744868C6.70048 0.744868 6.99963 1.01496 6.99963 1.34676V5.86105C6.99963 6.0274 7.14873 6.16201 7.33298 6.16201C7.51723 6.16201 7.66632 6.0274 7.66632 5.86105V5.56009C7.66632 5.22829 7.96548 4.95819 8.33298 4.95819C8.70048 4.95819 8.99963 5.22829 8.99963 5.56009V5.86105C8.99963 5.86164 8.99963 5.86223 8.99963 5.86283V5.86311C9.00095 6.02828 9.1497 6.16201 9.33298 6.16201C9.51723 6.16201 9.66632 6.0274 9.66632 5.86105V5.85634C9.66891 5.52688 9.96776 5.25913 10.333 5.25913C10.7005 5.25913 10.9996 5.52922 10.9996 5.86102V6.76388C10.9996 6.93023 11.1487 7.06484 11.333 7.06484C11.5172 7.06484 11.6663 6.93023 11.6663 6.76388C11.6663 6.43208 11.9655 6.16198 12.333 6.16198C12.7005 6.16198 12.9997 6.43208 12.9997 6.76391V10.6763Z" fill="white"/>
</svg>
